<?xml version="1.0" encoding="UTF-8"?>
<!-- Created with Grafika (https://www.grafika.cc/) -->
<svg version="1.0" xmlns="http://www.w3.org/2000/svg" xmlns:svg="http://www.w3.org/2000/svg" width="800" height="800" viewBox="-432.307129 1023.983398 800.000000 800.000000" preserveAspectRatio="xMinYMin meet">
	<defs>
		<clipPath id="cef79aa9-2130-4d60-a5df-e531c3a77841">
			<rect x="-55.232676464598505" y="-55.232676464598505" width="110.46535292919701" height="110.46535292919701" />
		</clipPath>
	</defs>
	<g transform="matrix(7.242090, 0.000000, 0.000000, 7.242090, -32.307129, 1423.983398)" clip-path="url(#cef79aa9-2130-4d60-a5df-e531c3a77841)" />
	<g transform="matrix(0.373438, 0.000000, 0.000000, 0.373438, -1326.492920, 1392.259277)">
		<path d="M6685.0,15849.0 C6591.0,15844.0 6550.0,15838.0 6498.0,15818.0 C6266.0,15731.0 6111.0,15539.0 6079.0,15303.0 C6072.0,15250.0 6070.0,13600.0 6072.0,10190.0 C6075.0,5575.0 6077.0,5151.0 6092.0,5102.0 C6165.0,4864.0 6327.0,4705.0 6562.0,4640.0 C6634.0,4620.0 6652.0,4620.0 10231.0,4620.0 C13779.0,4620.0 13828.0,4620.0 13904.0,4640.0 C14088.0,4687.0 14235.0,4809.0 14320.0,4985.0 C14395.0,5141.0 14390.0,5004.0 14390.0,6979.0 L14390.0,8750.0 L14220.0,8750.0 L14050.0,8750.0 L14048.0,6973.0 C14045.0,5488.0 14042.0,5189.0 14031.0,5158.0 C14008.0,5097.0 13949.0,5029.0 13890.0,4996.0 L13835.0,4965.0 L10230.0,4965.0 L6625.0,4965.0 L6584.0,4987.0 C6529.0,5016.0 6456.0,5099.0 6433.0,5158.0 C6416.0,5203.0 6415.0,5376.0 6412.0,10229.0 C6409.0,15763.0 6404.0,15312.0 6471.0,15396.0 C6506.0,15441.0 6567.0,15485.0 6619.0,15502.0 C6670.0,15519.0 11856.0,15526.0 11876.0,15509.0 C11888.0,15499.0 11890.0,15360.0 11890.0,14661.0 C11890.0,13945.0 11892.0,13816.0 11905.0,13766.0 C11955.0,13575.0 12095.0,13429.0 12290.0,13364.0 C12341.0,13347.0 12405.0,13345.0 13195.0,13340.0 L14045.0,13335.0 L14050.0,13090.0 L14055.0,12845.0 L14220.0,12845.0 L14385.0,12845.0 L14388.0,13198.0 L14390.0,13552.0 L14363.0,13603.0 C14342.0,13641.0 14065.0,13924.0 13260.0,14728.0 C12669.0,15319.0 12169.0,15813.0 12150.0,15826.0 L12115.0,15849.0 L9460.0,15852.0 C8000.0,15854.0 6751.0,15852.0 6685.0,15849.0 L6685.0,15849.0 ZM13031.0,14479.0 C13454.0,14056.0 13800.0,13704.0 13800.0,13696.0 C13800.0,13684.0 13694.0,13682.0 13098.0,13684.0 C12433.0,13685.0 12393.0,13686.0 12360.0,13704.0 C12311.0,13730.0 12272.0,13768.0 12247.0,13815.0 C12225.0,13855.0 12225.0,13859.0 12222.0,14563.0 L12219.0,15271.0 L12241.0,15260.0 C12252.0,15254.0 12608.0,14902.0 13031.0,14479.0 L13031.0,14479.0 Z" transform="matrix(0.120980, 0.000000, 0.000000, -0.120980, 2171.711914, 1323.352539)" style="fill:#000000;" />
		<path d="M10060.0,12523.0 C9967.0,12510.0 9907.0,12495.0 9855.0,12472.0 C9676.0,12394.0 9563.0,12268.0 9498.0,12075.0 L9475.0,12005.0 L9475.0,10805.0 C9475.0,9671.0 9476.0,9601.0 9493.0,9540.0 C9542.0,9368.0 9668.0,9214.0 9819.0,9141.0 C9979.0,9064.0 9767.0,9069.0 12425.0,9072.0 L14805.0,9075.0 L14873.0,9098.0 C15078.0,9168.0 15214.0,9305.0 15292.0,9520.0 L15315.0,9585.0 L15318.0,10774.0 C15320.0,11941.0 15320.0,11965.0 15300.0,12044.0 C15261.0,12199.0 15189.0,12311.0 15072.0,12400.0 C14974.0,12474.0 14873.0,12509.0 14736.0,12519.0 C14631.0,12527.0 10112.0,12531.0 10060.0,12523.0 L10060.0,12523.0 ZM14813.0,12161.0 C14839.0,12148.0 14880.0,12116.0 14904.0,12089.0 C14985.0,11999.0 14980.0,12087.0 14980.0,10805.0 C14980.0,9816.0 14978.0,9657.0 14965.0,9613.0 C14945.0,9545.0 14877.0,9470.0 14808.0,9439.0 L14755.0,9415.0 L12400.0,9412.0 L10045.0,9410.0 L9992.0,9431.0 C9921.0,9460.0 9846.0,9542.0 9825.0,9614.0 C9812.0,9660.0 9810.0,9810.0 9812.0,10811.0 L9815.0,11955.0 L9838.0,12005.0 C9879.0,12095.0 9961.0,12161.0 10053.0,12180.0 C10076.0,12184.0 11146.0,12187.0 12430.0,12186.0 L14765.0,12185.0 L14813.0,12161.0 L14813.0,12161.0 Z" transform="matrix(0.120980, 0.000000, 0.000000, -0.120980, 2171.711914, 1323.352539)" style="fill:#000000;" />
		<path d="M10535.0,11538.0 C10532.0,11531.0 10531.0,11210.0 10532.0,10825.0 L10535.0,10125.0 L10677.0,10122.0 L10820.0,10119.0 L10822.0,10382.0 L10825.0,10645.0 L11050.0,10651.0 C11257.0,10657.0 11281.0,10659.0 11349.0,10683.0 C11474.0,10727.0 11559.0,10802.0 11598.0,10905.0 C11667.0,11085.0 11637.0,11287.0 11524.0,11410.0 C11458.0,11481.0 11389.0,11518.0 11292.0,11536.0 C11186.0,11554.0 10542.0,11556.0 10535.0,11538.0 L10535.0,11538.0 ZM11213.0,11284.0 C11347.0,11238.0 11380.0,11042.0 11270.0,10947.0 C11248.0,10929.0 11212.0,10908.0 11189.0,10901.0 C11127.0,10882.0 10855.0,10874.0 10835.0,10890.0 C10823.0,10900.0 10820.0,10934.0 10820.0,11095.0 C10820.0,11200.0 10823.0,11290.0 10827.0,11293.0 C10830.0,11297.0 10908.0,11300.0 11000.0,11300.0 C11126.0,11300.0 11178.0,11296.0 11213.0,11284.0 L11213.0,11284.0 Z" transform="matrix(0.120980, 0.000000, 0.000000, -0.120980, 2171.711914, 1323.352539)" style="fill:#000000;" />
		<path d="M11868.0,11544.0 C11863.0,11540.0 11860.0,11219.0 11860.0,10830.0 L11860.0,10123.0 L12119.0,10116.0 C12415.0,10107.0 12533.0,10113.0 12640.0,10141.0 C12833.0,10193.0 12955.0,10323.0 13026.0,10555.0 C13052.0,10640.0 13054.0,10656.0 13054.0,10835.0 C13054.0,11014.0 13052.0,11030.0 13026.0,11115.0 C12988.0,11239.0 12946.0,11315.0 12875.0,11385.0 C12804.0,11455.0 12734.0,11495.0 12636.0,11523.0 C12573.0,11541.0 12525.0,11543.0 12220.0,11547.0 C12030.0,11550.0 11872.0,11548.0 11868.0,11544.0 L11868.0,11544.0 ZM12542.0,11281.0 C12643.0,11249.0 12725.0,11133.0 12748.0,10991.0 C12764.0,10895.0 12763.0,10747.0 12745.0,10656.0 C12719.0,10518.0 12673.0,10441.0 12588.0,10394.0 C12535.0,10365.0 12533.0,10365.0 12343.0,10362.0 L12150.0,10358.0 L12150.0,10830.0 L12150.0,11302.0 L12328.0,11297.0 C12426.0,11295.0 12522.0,11288.0 12542.0,11281.0 L12542.0,11281.0 Z" transform="matrix(0.120980, 0.000000, 0.000000, -0.120980, 2171.711914, 1323.352539)" style="fill:#000000;" />
		<path d="M13299.0,11545.0 C13292.0,11545.0 13289.0,10998.0 13295.0,10617.0 L13302.0,10110.0 L13446.0,10110.0 L13590.0,10110.0 L13592.0,10418.0 L13595.0,10725.0 L13893.0,10728.0 L14190.0,10730.0 L14190.0,10845.0 L14190.0,10960.0 L13893.0,10962.0 L13595.0,10965.0 L13595.0,11130.0 L13595.0,11295.0 L13943.0,11298.0 L14290.0,11300.0 L14290.0,11420.0 C14290.0,11509.0 14287.0,11540.0 14278.0,11540.0 C14271.0,11540.0 14048.0,11541.0 13782.0,11542.0 C13517.0,11544.0 13300.0,11545.0 13299.0,11545.0 L13299.0,11545.0 Z" transform="matrix(0.120980, 0.000000, 0.000000, -0.120980, 2171.711914, 1323.352539)" style="fill:#000000;" />
	</g>
</svg>